<?xml version="1.0" encoding="utf-8"?><svg xmlns="http://www.w3.org/2000/svg" viewBox="0 0 95.81 62.24"><defs><style>.cls-1{fill:#d95947;}</style></defs><title>Asset 2</title><g id="Layer_2" data-name="Layer 2"><g id="Layer_1-2" data-name="Layer 1"><path id="Shape" class="cls-1" d="M44.5,45.48l5.43,4.64c19.82-29,4.69-41.53-.33-45C37.07-4.32,18.13-.36,7.3,14S-2.15,47.64,10.39,57.1c10.24,7.73,24.74,6.5,35.61-2v0L43.11,52.8,40.79,51c-8.06,5.18-18.05,5.56-25.29.1C5.88,43.81,4.81,29,13.13,18s23.52-14.22,32.5-6.8C48.14,13.47,60.34,20,44.5,45.48Z"/><path id="Shape-2" data-name="Shape" class="cls-1" d="M58.28,60.34l8-.08L50.84,37.56l-5.23,7.1Z"/><path id="Shape-3" data-name="Shape" class="cls-1" d="M67.25,53.16,77,2.84H69.4L58.28,60.34H94.44l1.37-7.18Z"/></g></g></svg>